#Comment line ignore any data following # character 
#Hierarchical Translation and Rotation (.htr) file 
[Header]	
#Header keywords are followed by a single value 
FileType HTR		#Single word string
DataType HTRS		#Translation followed by rotation and scale data
FileVersion 1		#integer
NumSegments 84		#integer
NumFrames 2		#integer
DataFrameRate 30		#integer, data frame rate in this file
EulerRotationOrder ZYX
CalibrationUnits mm
RotationUnits Degrees
GlobalAxisofGravity Y
BoneLengthAxis Y
ScaleFactor 1.00
[SegmentNames&Hierarchy]
#CHILD	PARENT
MASTER GLOBAL
root MASTER
chest root
L_mid_tent01 root
R_mid_tent01 root
spine01 root
Bip01_Neck chest
L_humerus chest
R_humerus chest
weapon_bone chest
Bip01_Head Bip01_Neck
eye_left_bone Bip01_Head
eye_right_bone Bip01_Head
L_forearm L_humerus
L_front_hand L_forearm
L_weapon_bone L_forearm
L_front_hand01_01 L_front_hand
L_front_hand02_01 L_front_hand
L_front_hand03_01 L_front_hand
L_front_hand01_02 L_front_hand01_01
L_front_hand02_02 L_front_hand02_01
L_front_hand03_02 L_front_hand03_01
R_forearm R_humerus
R_front_hand R_forearm
R_weapon_bone R_forearm
R_front_hand01_01 R_front_hand
R_front_hand02_01 R_front_hand
R_front_hand03_01 R_front_hand
R_front_hand01_02 R_front_hand01_01
R_front_hand02_02 R_front_hand02_01
R_front_hand03_02 R_front_hand03_01
null_rope01_connect L_mid_tent01
Rope1_Seg01 null_rope01_connect
Rope1_Seg02 Rope1_Seg01
Rope1_Seg03 Rope1_Seg02
Rope1_Seg04 Rope1_Seg03
Rope1_Seg05 Rope1_Seg04
Rope1_Seg06 Rope1_Seg05
Rope1_Seg07 Rope1_Seg06
Rope1_Seg09 Rope1_Seg07
L_mid_hand01 Rope1_Seg09
L_mid_hand02 Rope1_Seg09
L_mid_hand03 Rope1_Seg09
null_rope02_connect R_mid_tent01
Rope2_Seg01 null_rope02_connect
Rope2_Seg02 Rope2_Seg01
Rope2_Seg03 Rope2_Seg02
Rope2_Seg04 Rope2_Seg03
Rope2_Seg05 Rope2_Seg04
Rope2_Seg06 Rope2_Seg05
Rope2_Seg07 Rope2_Seg06
Rope2_Seg09 Rope2_Seg07
R_mid_hand01 Rope2_Seg09
R_mid_hand02 Rope2_Seg09
R_mid_hand03 Rope2_Seg09
spine02 spine01
spine03 spine02
pelvis spine03
null_rope03_connect pelvis
null_rope04_connect pelvis
Rope3_Seg01 null_rope03_connect
Rope3_Seg02 Rope3_Seg01
Rope3_Seg03 Rope3_Seg02
Rope3_Seg04 Rope3_Seg03
Rope3_Seg05 Rope3_Seg04
Rope3_Seg06 Rope3_Seg05
Rope3_Seg07 Rope3_Seg06
Rope3_Seg08 Rope3_Seg07
Rope3_Seg09 Rope3_Seg08
R_rear_hand01 Rope3_Seg09
R_rear_hand02 Rope3_Seg09
R_rear_hand03 Rope3_Seg09
Rope4_Seg01 null_rope04_connect
Rope4_Seg02 Rope4_Seg01
Rope4_Seg03 Rope4_Seg02
Rope4_Seg04 Rope4_Seg03
Rope4_Seg05 Rope4_Seg04
Rope4_Seg06 Rope4_Seg05
Rope4_Seg07 Rope4_Seg06
Rope4_Seg08 Rope4_Seg07
Rope4_Seg09 Rope4_Seg08
L_rear_hand01 Rope4_Seg09
L_rear_hand02 Rope4_Seg09
L_rear_hand03 Rope4_Seg09
[BasePosition]
#SegmentName Tx, Ty, Tz, Rx, Ry, Rz, BoneLength
MASTER 0.000000 0.000000 0.000000 -90.000000 0.000000 0.000000 10.000000 
root 0.000000 0.000000 0.000000 0.000000 0.000000 0.000000 10.000000 
chest 0.000000 0.000000 0.000000 0.000000 0.000000 0.000000 10.000000 
L_mid_tent01 0.000000 0.000000 0.000000 0.000000 0.000000 0.000000 10.000000 
R_mid_tent01 0.000000 0.000000 0.000000 0.000000 0.000000 0.000000 10.000000 
spine01 0.000000 0.000000 0.000000 0.000000 0.000000 0.000000 10.000000 
Bip01_Neck 0.000000 0.000000 0.000000 0.000000 0.000000 0.000000 10.000000 
L_humerus 0.000000 0.000000 0.000000 0.000000 0.000000 0.000000 10.000000 
R_humerus 0.000000 0.000000 0.000000 0.000000 0.000000 0.000000 10.000000 
weapon_bone 0.000000 0.000000 0.000000 0.000000 0.000000 0.000000 10.000000 
Bip01_Head 0.000000 0.000000 0.000000 0.000000 0.000000 0.000000 10.000000 
eye_left_bone 0.000000 0.000000 0.000000 0.000000 0.000000 0.000000 10.000000 
eye_right_bone 0.000000 0.000000 0.000000 0.000000 0.000000 0.000000 10.000000 
L_forearm 0.000000 0.000000 0.000000 0.000000 0.000000 0.000000 10.000000 
L_front_hand 0.000000 0.000000 0.000000 0.000000 0.000000 0.000000 10.000000 
L_weapon_bone 0.000000 0.000000 0.000000 0.000000 0.000000 0.000000 10.000000 
L_front_hand01_01 0.000000 0.000000 0.000000 0.000000 0.000000 0.000000 10.000000 
L_front_hand02_01 0.000000 0.000000 0.000000 0.000000 0.000000 0.000000 10.000000 
L_front_hand03_01 0.000000 0.000000 0.000000 0.000000 0.000000 0.000000 10.000000 
L_front_hand01_02 0.000000 0.000000 0.000000 0.000000 0.000000 0.000000 10.000000 
L_front_hand02_02 0.000000 0.000000 0.000000 0.000000 0.000000 0.000000 10.000000 
L_front_hand03_02 0.000000 0.000000 0.000000 0.000000 0.000000 0.000000 10.000000 
R_forearm 0.000000 0.000000 0.000000 0.000000 0.000000 0.000000 10.000000 
R_front_hand 0.000000 0.000000 0.000000 0.000000 0.000000 0.000000 10.000000 
R_weapon_bone 0.000000 0.000000 0.000000 0.000000 0.000000 0.000000 10.000000 
R_front_hand01_01 0.000000 0.000000 0.000000 0.000000 0.000000 0.000000 10.000000 
R_front_hand02_01 0.000000 0.000000 0.000000 0.000000 0.000000 0.000000 10.000000 
R_front_hand03_01 0.000000 0.000000 0.000000 0.000000 0.000000 0.000000 10.000000 
R_front_hand01_02 0.000000 0.000000 0.000000 0.000000 0.000000 0.000000 10.000000 
R_front_hand02_02 0.000000 0.000000 0.000000 0.000000 0.000000 0.000000 10.000000 
R_front_hand03_02 0.000000 0.000000 0.000000 0.000000 0.000000 0.000000 10.000000 
null_rope01_connect 0.000000 0.000000 0.000000 0.000000 0.000000 0.000000 10.000000 
Rope1_Seg01 0.000000 0.000000 0.000000 0.000000 0.000000 0.000000 10.000000 
Rope1_Seg02 0.000000 0.000000 0.000000 0.000000 0.000000 0.000000 10.000000 
Rope1_Seg03 0.000000 0.000000 0.000000 0.000000 0.000000 0.000000 10.000000 
Rope1_Seg04 0.000000 0.000000 0.000000 0.000000 0.000000 0.000000 10.000000 
Rope1_Seg05 0.000000 0.000000 0.000000 0.000000 0.000000 0.000000 10.000000 
Rope1_Seg06 0.000000 0.000000 0.000000 0.000000 0.000000 0.000000 10.000000 
Rope1_Seg07 0.000000 0.000000 0.000000 0.000000 0.000000 0.000000 10.000000 
Rope1_Seg09 0.000000 0.000000 0.000000 0.000000 0.000000 0.000000 10.000000 
L_mid_hand01 0.000000 0.000000 0.000000 0.000000 0.000000 0.000000 10.000000 
L_mid_hand02 0.000000 0.000000 0.000000 0.000000 0.000000 0.000000 10.000000 
L_mid_hand03 0.000000 0.000000 0.000000 0.000000 0.000000 0.000000 10.000000 
null_rope02_connect 0.000000 0.000000 0.000000 0.000000 0.000000 0.000000 10.000000 
Rope2_Seg01 0.000000 0.000000 0.000000 0.000000 0.000000 0.000000 10.000000 
Rope2_Seg02 0.000000 0.000000 0.000000 0.000000 0.000000 0.000000 10.000000 
Rope2_Seg03 0.000000 0.000000 0.000000 0.000000 0.000000 0.000000 10.000000 
Rope2_Seg04 0.000000 0.000000 0.000000 0.000000 0.000000 0.000000 10.000000 
Rope2_Seg05 0.000000 0.000000 0.000000 0.000000 0.000000 0.000000 10.000000 
Rope2_Seg06 0.000000 0.000000 0.000000 0.000000 0.000000 0.000000 10.000000 
Rope2_Seg07 0.000000 0.000000 0.000000 0.000000 0.000000 0.000000 10.000000 
Rope2_Seg09 0.000000 0.000000 0.000000 0.000000 0.000000 0.000000 10.000000 
R_mid_hand01 0.000000 0.000000 0.000000 0.000000 0.000000 0.000000 10.000000 
R_mid_hand02 0.000000 0.000000 0.000000 0.000000 0.000000 0.000000 10.000000 
R_mid_hand03 0.000000 0.000000 0.000000 0.000000 0.000000 0.000000 10.000000 
spine02 0.000000 0.000000 0.000000 0.000000 0.000000 0.000000 10.000000 
spine03 0.000000 0.000000 0.000000 0.000000 0.000000 0.000000 10.000000 
pelvis 0.000000 0.000000 0.000000 0.000000 0.000000 0.000000 10.000000 
null_rope03_connect 0.000000 0.000000 0.000000 0.000000 0.000000 0.000000 10.000000 
null_rope04_connect 0.000000 0.000000 0.000000 0.000000 0.000000 0.000000 10.000000 
Rope3_Seg01 0.000000 0.000000 0.000000 0.000000 0.000000 0.000000 10.000000 
Rope3_Seg02 0.000000 0.000000 0.000000 0.000000 0.000000 0.000000 10.000000 
Rope3_Seg03 0.000000 0.000000 0.000000 0.000000 0.000000 0.000000 10.000000 
Rope3_Seg04 0.000000 0.000000 0.000000 0.000000 0.000000 0.000000 10.000000 
Rope3_Seg05 0.000000 0.000000 0.000000 0.000000 0.000000 0.000000 10.000000 
Rope3_Seg06 0.000000 0.000000 0.000000 0.000000 0.000000 0.000000 10.000000 
Rope3_Seg07 0.000000 0.000000 0.000000 0.000000 0.000000 0.000000 10.000000 
Rope3_Seg08 0.000000 0.000000 0.000000 0.000000 0.000000 0.000000 10.000000 
Rope3_Seg09 0.000000 0.000000 0.000000 0.000000 0.000000 0.000000 10.000000 
R_rear_hand01 0.000000 0.000000 0.000000 0.000000 0.000000 0.000000 10.000000 
R_rear_hand02 0.000000 0.000000 0.000000 0.000000 0.000000 0.000000 10.000000 
R_rear_hand03 0.000000 0.000000 0.000000 0.000000 0.000000 0.000000 10.000000 
Rope4_Seg01 0.000000 0.000000 0.000000 0.000000 0.000000 0.000000 10.000000 
Rope4_Seg02 0.000000 0.000000 0.000000 0.000000 0.000000 0.000000 10.000000 
Rope4_Seg03 0.000000 0.000000 0.000000 0.000000 0.000000 0.000000 10.000000 
Rope4_Seg04 0.000000 0.000000 0.000000 0.000000 0.000000 0.000000 10.000000 
Rope4_Seg05 0.000000 0.000000 0.000000 0.000000 0.000000 0.000000 10.000000 
Rope4_Seg06 0.000000 0.000000 0.000000 0.000000 0.000000 0.000000 10.000000 
Rope4_Seg07 0.000000 0.000000 0.000000 0.000000 0.000000 0.000000 10.000000 
Rope4_Seg08 0.000000 0.000000 0.000000 0.000000 0.000000 0.000000 10.000000 
Rope4_Seg09 0.000000 0.000000 0.000000 0.000000 0.000000 0.000000 10.000000 
L_rear_hand01 0.000000 0.000000 0.000000 0.000000 0.000000 0.000000 10.000000 
L_rear_hand02 0.000000 0.000000 0.000000 0.000000 0.000000 0.000000 10.000000 
L_rear_hand03 0.000000 0.000000 0.000000 0.000000 0.000000 0.000000 10.000000 
#Beginning of Data. Separated by tabs
#Fr	Tx	Ty	Tz	Rx	Ry	Rz	SF
[MASTER]
57 -0.000074 554.566467 0.000000 0.001660 0.001660 0.001660 554.566467
58 -0.000074 554.566467 0.000000 0.001660 0.001660 0.001660 554.566467
[root]
57 -313.386902 275.914978 981.841003 -96.095505 -23.683784 -85.345726 1066.935913
58 -314.852142 288.654144 977.580139 -96.094048 -23.686787 -85.393089 1066.825195
[chest]
57 -84.512650 -34.090519 0.000000 -5.886179 -5.455577 177.432953 91.129311
58 -84.512650 -34.090519 0.000000 -6.575073 -6.216145 177.701324 91.129311
[L_mid_tent01]
57 27.750162 21.919296 -252.813904 12.677573 26.801548 81.963722 255.275146
58 27.752279 21.918079 -252.827560 12.601585 26.492863 81.845055 255.288773
[R_mid_tent01]
57 23.228794 24.509907 226.238495 155.019913 -23.482567 80.091049 228.744751
58 23.228794 24.509907 226.238495 155.007355 -23.833637 80.171425 228.744751
[spine01]
57 -0.361383 -0.195265 0.000000 0.001869 0.001420 15.534141 0.410763
58 -0.361383 -0.195265 0.000000 0.001869 0.001420 15.534135 0.410763
[Bip01_Neck]
57 165.484543 71.581718 0.000119 175.896118 1.177290 24.871180 180.302734
58 165.484543 71.581718 0.000119 175.896118 1.177290 24.871183 180.302734
[L_humerus]
57 -13.983130 -135.272980 -120.471481 177.107224 -3.215437 -154.283081 181.680161
58 -13.983130 -135.272980 -120.471481 176.966568 -3.261271 -153.601227 181.680161
[R_humerus]
57 -13.983309 -135.273102 125.287651 -166.061508 -4.643395 -107.676369 184.909012
58 -13.983309 -135.273102 125.287651 -166.410950 -5.225454 -106.936531 184.909012
[weapon_bone]
57 235.964890 -300.705902 0.000000 0.000000 -89.951546 -128.212341 382.234833
58 235.964890 -300.705902 0.000000 0.000000 -89.951546 -128.212341 382.234833
[Bip01_Head]
57 183.294724 139.094070 12.295485 39.257603 8.495106 -47.382309 230.424179
58 183.294785 139.095123 12.295553 39.257610 8.495107 -47.382317 230.424850
[eye_left_bone]
57 -24.626970 125.451866 -64.772606 0.000000 -90.000000 -99.840431 143.318359
58 -24.626970 125.451866 -64.772606 0.000000 -90.000000 -99.840431 143.318359
[eye_right_bone]
57 -24.626970 125.451866 64.327362 0.000000 -89.960434 80.159386 143.117676
58 -24.626970 125.451866 64.327362 0.000000 -89.960434 80.159386 143.117676
[L_forearm]
57 322.776093 0.000000 -0.000119 0.000158 -0.002342 -97.731216 322.776093
58 322.776093 0.000000 -0.000119 0.000154 -0.002342 -97.546974 322.776093
[L_front_hand]
57 241.149185 -0.042021 -3.300071 -179.623398 -2.236525 -1.004926 241.171753
58 241.149185 -0.042021 -3.300071 -179.617661 -2.233469 -1.173222 241.171753
[L_weapon_bone]
57 156.183838 0.000000 0.000000 0.000014 0.000007 0.000001 156.183838
58 156.183838 0.000000 0.000000 0.000014 0.000007 0.000001 156.183838
[L_front_hand01_01]
57 86.095154 20.947098 -0.655860 -0.366594 -0.477154 75.385574 88.609184
58 86.095154 20.947098 -0.655860 -0.366594 -0.477154 75.385574 88.609184
[L_front_hand02_01]
57 86.935165 -11.437475 24.513514 154.403519 -59.888931 -61.371990 91.046425
58 86.935165 -11.437475 24.513514 154.403519 -59.888931 -61.371990 91.046425
[L_front_hand03_01]
57 86.637497 -14.123976 -20.424902 -153.913849 58.118122 -62.702866 90.126129
58 86.637497 -14.123976 -20.424902 -153.913849 58.118122 -62.702866 90.126129
[L_front_hand01_02]
57 71.020905 -0.000179 0.000030 0.000334 -0.002323 -106.379684 71.020905
58 71.020905 -0.000179 0.000030 0.000334 -0.002323 -106.379684 71.020905
[L_front_hand02_02]
57 71.020927 -0.000119 0.000060 0.000334 -0.002323 -106.379684 71.020927
58 71.020927 -0.000119 0.000060 0.000334 -0.002323 -106.379684 71.020927
[L_front_hand03_02]
57 71.020905 -0.000060 0.000060 0.000334 -0.002323 -106.379684 71.020905
58 71.020905 -0.000060 0.000060 0.000334 -0.002323 -106.379684 71.020905
[R_forearm]
57 322.776428 -0.000060 0.000030 0.211091 0.034330 -100.357368 322.776428
58 322.776428 -0.000060 0.000030 0.211132 0.034074 -100.218216 322.776428
[R_front_hand]
57 238.847015 -0.006795 2.210259 -116.534431 0.789243 -51.441441 238.857239
58 238.847015 -0.006795 2.210259 -116.534447 0.789241 -51.441441 238.857239
[R_weapon_bone]
57 155.664093 0.002503 -0.000030 0.003487 0.001180 -90.988930 155.664078
58 155.664093 0.002503 -0.000030 0.003487 0.001180 -90.988930 155.664078
[R_front_hand01_01]
57 87.624611 14.231146 22.918642 -120.890663 -28.186476 16.235504 91.683487
58 87.624611 14.231146 22.918642 -116.960205 3.496196 -1.323894 91.683487
[R_front_hand02_01]
57 89.356956 14.367283 -19.491137 122.194466 27.022129 18.872093 92.579636
58 89.356956 14.367283 -19.491137 118.419624 -4.256615 0.610085 92.579636
[R_front_hand03_01]
57 87.286232 -22.307278 -0.143439 -0.177626 -0.418814 -31.676899 90.091743
58 87.286232 -22.307278 -0.143439 -0.387967 -0.231465 4.231462 90.091743
[R_front_hand01_02]
57 71.020905 0.000060 0.000119 0.002215 0.000777 51.348263 71.020905
58 71.020905 0.000060 0.000119 0.001777 0.001534 8.377862 71.020905
[R_front_hand02_02]
57 71.020844 -0.000030 -0.000119 0.002215 0.000777 51.348263 71.020836
58 71.020844 -0.000030 -0.000119 0.001777 0.001534 8.377862 71.020836
[R_front_hand03_02]
57 71.020905 0.000000 0.000030 0.002215 0.000777 51.348263 71.020905
58 71.020905 0.000000 0.000030 0.001777 0.001534 8.377862 71.020905
[null_rope01_connect]
57 328.732483 0.000000 -0.000238 -131.499725 -58.988007 168.031372 328.732483
58 328.732483 0.000000 -0.000238 -131.331589 -59.261753 167.901413 328.732483
[Rope1_Seg01]
57 6.457752 -4.500380 -1.396329 -6.734784 5.522612 -167.732925 7.994105
58 6.471470 -4.488781 -1.365139 -8.001306 4.142077 -168.732620 7.993290
[Rope1_Seg02]
57 139.999863 -0.000179 0.000000 1.928641 14.749172 -7.615375 139.999863
58 139.999863 -0.000179 0.000000 2.144317 14.331298 -6.942479 139.999863
[Rope1_Seg03]
57 139.999924 0.000060 -0.000060 -7.965926 35.901630 -23.682446 139.999924
58 139.999924 0.000060 -0.000060 -7.314920 36.032261 -22.479694 139.999924
[Rope1_Seg04]
57 139.999924 -0.000060 -0.000119 -17.287245 30.774820 -18.622763 139.999924
58 139.999924 -0.000060 -0.000119 -18.386488 32.342434 -18.941364 139.999924
[Rope1_Seg05]
57 139.999832 0.000119 -0.000060 -14.880172 14.290215 -6.519363 139.999832
58 139.999832 0.000119 -0.000060 -15.716836 14.752026 -6.204045 139.999832
[Rope1_Seg06]
57 139.999954 0.000119 -0.000060 -75.426910 23.214006 -6.460987 139.999954
58 139.999954 0.000119 -0.000060 -72.829582 23.700478 -5.533681 139.999954
[Rope1_Seg07]
57 139.999985 0.000060 0.000000 -40.323692 9.271139 17.938231 139.999985
58 139.999985 0.000060 0.000000 -38.797657 9.318922 18.018000 139.999985
[Rope1_Seg09]
57 121.602913 0.000119 -0.000089 -89.793175 -1.359789 0.847147 121.602913
58 121.602913 0.000119 -0.000089 -89.793175 -1.359789 0.847147 121.602913
[L_mid_hand01]
57 103.859421 1.038730 8.195221 116.294914 -23.111713 -31.758034 104.187431
58 103.859421 1.038730 8.195221 116.294914 -23.111715 -31.758034 104.187431
[L_mid_hand02]
57 105.572853 -4.139662 -10.864139 -144.219833 17.447468 -35.360519 106.211075
58 105.572853 -4.139662 -10.864139 -144.219833 17.447470 -35.360519 106.211075
[L_mid_hand03]
57 104.641464 17.579376 -3.913581 -17.830778 17.153103 31.982925 106.179977
58 104.641464 17.579376 -3.913581 -17.830778 17.153103 31.982925 106.179977
[null_rope02_connect]
57 328.732849 0.000179 -0.000119 -88.510712 54.297745 54.172569 328.732849
58 328.732849 0.000179 -0.000119 -89.015045 54.158089 53.676445 328.732849
[Rope2_Seg01]
57 0.000036 0.000210 0.000000 50.273132 28.776901 -21.160088 0.000213
58 0.000035 0.000211 0.000000 48.513386 29.276104 -22.599277 0.000214
[Rope2_Seg02]
57 139.999741 -0.000060 -0.000119 5.960374 6.645493 5.707535 139.999756
58 139.999741 -0.000060 -0.000119 6.079948 6.436395 5.901731 139.999756
[Rope2_Seg03]
57 140.000107 0.000030 0.000000 8.201070 12.525726 8.900477 140.000107
58 140.000107 0.000030 0.000000 8.564589 12.330922 9.341275 140.000107
[Rope2_Seg04]
57 139.999802 0.000000 -0.000060 8.392693 26.432913 12.272985 139.999802
58 139.999802 0.000000 -0.000060 9.137602 26.539259 13.258400 139.999802
[Rope2_Seg05]
57 139.999985 -0.000060 0.000119 0.375186 24.273001 9.268835 139.999985
58 139.999985 -0.000060 0.000119 0.723906 24.368780 9.859024 139.999985
[Rope2_Seg06]
57 139.999893 -0.000030 -0.000119 -2.726516 5.726566 11.286594 139.999893
58 139.999893 -0.000030 -0.000119 -2.563426 5.853186 11.416636 139.999893
[Rope2_Seg07]
57 139.999893 0.000060 -0.000060 -2.602217 1.031574 13.271375 139.999893
58 139.999893 0.000060 -0.000060 -2.467779 1.414981 13.299324 139.999893
[Rope2_Seg09]
57 121.338966 0.000089 -0.000060 33.793236 -1.359788 -0.847141 121.338966
58 121.338966 0.000089 -0.000060 33.793236 -1.359788 -0.847141 121.338966
[R_mid_hand01]
57 104.680779 11.144459 -10.335981 -41.523792 25.424656 28.595957 105.778534
58 104.680779 11.144459 -10.335981 -41.523792 25.424656 28.595957 105.778534
[R_mid_hand02]
57 104.070427 2.443552 8.231699 72.847389 -32.746803 10.013901 104.424065
58 104.070427 2.443552 8.231699 72.847389 -32.746803 10.013901 104.424065
[R_mid_hand03]
57 106.028137 -11.221827 -5.996406 -167.901306 10.259192 -37.009720 106.788818
58 106.028137 -11.221827 -5.996406 -167.901306 10.259192 -37.009720 106.788818
[spine02]
57 129.756927 0.001550 0.000119 -0.245322 -4.052059 -4.355546 129.756927
58 129.756927 0.001550 0.000119 -0.245322 -4.052060 -4.355547 129.756927
[spine03]
57 78.613846 0.087372 -4.898873 0.369658 4.260732 -4.885719 78.766380
58 78.613846 0.087372 -4.898873 0.369658 4.260732 -4.885719 78.766380
[pelvis]
57 169.435242 0.051022 0.000000 -0.010007 -0.191417 -1.897553 169.435257
58 169.435242 0.051022 0.000000 -0.010007 -0.191417 -1.897554 169.435257
[null_rope03_connect]
57 -1.257226 -2.466202 137.391083 155.732697 -84.354584 -46.226006 137.418976
58 -1.257226 -2.466202 137.391083 156.176437 -84.376564 -46.668915 137.418976
[null_rope04_connect]
57 -1.259640 -2.480268 -137.844437 155.732697 -84.354584 -46.226006 137.872513
58 -1.259640 -2.480268 -137.844437 156.176437 -84.376564 -46.668915 137.872513
[Rope3_Seg01]
57 0.000000 0.000000 0.000000 -43.488964 -36.999020 1.060144 0.000000
58 0.000000 0.000000 0.000000 -41.806587 -37.360542 -0.452197 0.000000
[Rope3_Seg02]
57 139.999924 -0.000119 0.000060 -2.649532 -1.467677 4.104887 139.999924
58 139.999924 -0.000119 0.000060 -2.584018 -1.419522 4.149091 139.999924
[Rope3_Seg03]
57 139.999924 -0.000119 0.000119 -4.578927 -2.406803 5.895205 139.999924
58 139.999924 -0.000119 0.000119 -4.500314 -2.335573 5.982220 139.999924
[Rope3_Seg04]
57 139.999924 0.000119 0.000000 -9.086800 -4.491868 8.961404 139.999924
58 139.999924 0.000119 0.000000 -9.028770 -4.401050 9.165416 139.999924
[Rope3_Seg05]
57 139.999924 -0.000238 0.000060 -26.640352 -12.916689 18.261440 139.999924
58 139.999924 -0.000238 0.000060 -27.010651 -12.784620 18.794521 139.999924
[Rope3_Seg06]
57 139.999893 -0.000119 -0.000060 -22.668278 -17.465807 10.638773 139.999893
58 139.999893 -0.000119 -0.000060 -23.227262 -17.552393 10.999558 139.999893
[Rope3_Seg07]
57 139.999771 0.000060 -0.000119 -1.329496 -1.343375 1.313220 139.999771
58 139.999771 0.000060 -0.000119 -1.500068 -1.506699 1.349562 139.999771
[Rope3_Seg08]
57 139.999985 -0.000060 0.000000 -2.573053 -3.039387 1.183406 139.999985
58 139.999985 -0.000060 0.000000 -2.706360 -3.168632 1.209859 139.999985
[Rope3_Seg09]
57 90.185997 -0.000179 -0.000060 89.793228 -1.359877 -0.847183 90.185997
58 90.185997 -0.000179 -0.000060 89.793228 -1.359877 -0.847183 90.185997
[R_rear_hand01]
57 103.366196 -6.073594 -10.757982 -161.551193 16.666374 -30.088671 104.101845
58 103.366196 -6.073594 -10.757982 -161.551193 16.666374 -30.088671 104.101845
[R_rear_hand02]
57 100.509819 12.039542 -7.992327 -34.280552 19.289745 28.875523 101.543350
58 100.509819 12.039542 -7.992327 -34.280552 19.289745 28.875523 101.543350
[R_rear_hand03]
57 101.539970 5.215704 5.435467 83.366440 -30.933914 7.284830 101.819031
58 101.539970 5.215704 5.435467 83.366440 -30.933914 7.284830 101.819031
[Rope4_Seg01]
57 -0.000024 -0.000048 0.000096 -63.526947 -26.780041 -163.511459 0.000110
58 -0.000024 -0.000047 0.000095 -65.470795 -26.423639 -161.762283 0.000108
[Rope4_Seg02]
57 139.999985 0.000060 0.000119 10.448775 11.379192 -7.651597 139.999985
58 139.999985 0.000060 0.000119 10.163424 11.509912 -7.467402 139.999985
[Rope4_Seg03]
57 139.999924 0.000000 -0.000238 20.411551 15.187213 -15.726008 139.999924
58 139.999924 0.000000 -0.000238 20.496460 15.749352 -15.635610 139.999924
[Rope4_Seg04]
57 139.999985 0.000000 0.000119 19.303673 6.757882 -22.148884 139.999985
58 139.999985 0.000000 0.000119 19.877909 7.399682 -22.486820 139.999985
[Rope4_Seg05]
57 139.999802 -0.000060 -0.000119 10.234505 1.532770 -16.314985 139.999802
58 139.999802 -0.000060 -0.000119 10.394924 1.603891 -16.398918 139.999802
[Rope4_Seg06]
57 139.999924 0.000000 0.000060 10.533016 2.726295 -24.704527 139.999924
58 139.999924 0.000000 0.000060 10.697233 2.646503 -24.970619 139.999924
[Rope4_Seg07]
57 139.999802 0.000000 0.000000 5.652011 -1.974466 -25.801018 139.999802
58 139.999802 0.000000 0.000000 5.708555 -2.190360 -26.358149 139.999802
[Rope4_Seg08]
57 139.999924 0.000000 0.000119 -0.873019 -2.472144 -11.978043 139.999924
58 139.999924 0.000000 0.000119 -0.944423 -2.570585 -12.110294 139.999924
[Rope4_Seg09]
57 90.185791 0.000060 0.000060 -135.617828 2.228885 0.850567 90.185791
58 90.185791 0.000060 0.000060 -135.617828 2.228885 0.850567 90.185791
[L_rear_hand01]
57 101.696655 -8.392275 -7.654577 -34.454281 -18.946800 151.655121 102.329041
58 101.696655 -8.392275 -7.654577 -34.454281 -18.946800 151.655121 102.329041
[L_rear_hand02]
57 102.726799 -1.568258 5.773216 83.407906 30.330435 172.796509 102.900848
58 102.726799 -1.568258 5.773216 83.407906 30.330435 172.796509 102.900848
[L_rear_hand03]
57 104.552910 9.721220 -10.420293 -161.379868 -16.473232 -150.512238 105.519653
58 104.552910 9.721220 -10.420293 -161.379868 -16.473232 -150.512238 105.519653
